<svg xmlns="http://www.w3.org/2000/svg" xmlns:xlink="http://www.w3.org/1999/xlink" width="500" zoomAndPan="magnify" viewBox="0 0 375 374.999991" height="500" preserveAspectRatio="xMidYMid meet" version="1.0"><defs><g/><clipPath id="5da6952bbc"><path d="M 1 0.378906 L 226.417969 0.378906 L 226.417969 203 L 1 203 Z M 1 0.378906 " clip-rule="nonzero"/></clipPath><clipPath id="d5489f7845"><rect x="0" width="227" y="0" height="269"/></clipPath></defs><g transform="matrix(1, 0, 0, 1, 74, 65)"><g clip-path="url(#d5489f7845)"><g clip-path="url(#5da6952bbc)"><path fill="#1e1e1e" d="M 108.117188 202.460938 C 106.808594 201.695312 102.792969 181.976562 103.066406 180.890625 C 103.40625 179.535156 105.867188 179.171875 106.242188 180.421875 C 106.59375 181.589844 110.660156 200.644531 110.660156 201.125 C 110.660156 201.710938 109.589844 202.84375 109.050781 202.824219 C 108.617188 202.8125 108.117188 202.390625 108.117188 202.460938 Z M 144.402344 178.789062 C 144.402344 177.699219 145.5625 176.699219 146.488281 176.992188 C 147.84375 177.421875 147.410156 177.675781 152.6875 192.167969 C 154.316406 196.640625 155.652344 200.683594 155.652344 201.148438 C 155.652344 202.875 153.632812 203.488281 152.691406 202.042969 C 152.691406 203.121094 144.402344 180.222656 144.402344 178.789062 Z M 57.433594 196.308594 C 56.617188 195.492188 56.542969 196.191406 59.363281 186.195312 C 63.148438 172.789062 63.378906 170.726562 63.734375 170.152344 C 64.039062 169.660156 65.789062 169.703125 66.304688 170.21875 C 66.933594 170.847656 66.820312 172.277344 65.820312 176.234375 C 65.125 178.996094 61.847656 190.746094 60.535156 195.1875 C 60.070312 196.75 58.460938 197.332031 57.433594 196.308594 Z M 194.035156 176.035156 C 182.855469 164.667969 182.324219 164 183.488281 162.835938 C 183.71875 162.605469 184.328125 162.414062 184.839844 162.414062 C 186.332031 162.414062 203.804688 180.917969 203.804688 181.707031 C 203.804688 182.417969 202.601562 183.503906 201.808594 183.503906 C 201.46875 183.503906 194 176.105469 194.035156 176.035156 Z M 19.777344 177.71875 C 19.257812 176.925781 19.257812 176.757812 19.769531 175.734375 C 20.722656 173.820312 30.976562 157.53125 32.03125 156.25 C 33.085938 154.972656 34.542969 154.625 35.371094 155.457031 C 36.113281 156.195312 35.835938 157.023438 33.902344 159.839844 C 31.1875 163.789062 22.933594 177.53125 22.15625 178.144531 C 20.621094 179.359375 19.847656 177.71875 19.777344 177.71875 Z M 37.902344 151.109375 C 29.542969 146.664062 11.292969 134.257812 12.433594 124.816406 C 13.59375 115.234375 32.4375 80.917969 67.089844 65.671875 C 84.71875 57.914062 105.273438 55.339844 132.746094 62.09375 C 179.136719 73.488281 196.25 95.597656 207.496094 102.289062 C 215.398438 106.992188 223.558594 112.625 225.304688 113.515625 C 226.273438 114.011719 226.605469 114.703125 226.382812 115.738281 C 226.320312 116.039062 182.382812 160.980469 123.3125 168.75 C 92.59375 172.792969 64.828125 165.425781 37.902344 151.109375 Z M 115.933594 164.847656 C 119.511719 164.394531 115.960938 164.835938 103.839844 164.941406 C 85.824219 165.097656 115.933594 165.726562 115.933594 164.847656 Z M 85.003906 159.917969 C 53.300781 154.316406 34.035156 142.105469 34.035156 142.894531 C 34.035156 143.148438 46.109375 151.0625 52.792969 153.652344 C 68.886719 159.882812 100.695312 162.691406 85.003906 159.917969 Z M 131.398438 158.039062 C 159.046875 154.851562 173.757812 148.449219 193.261719 132.089844 C 196.941406 129.003906 204.429688 121.894531 209.765625 115.410156 C 206.269531 111.839844 171.355469 89.804688 138.726562 84.390625 C 131.875 83.253906 131.722656 83.257812 135.152344 84.519531 C 148.347656 89.382812 153.988281 100.570312 154.507812 114.492188 C 156.339844 163.820312 100.164062 166.820312 86.753906 139.742188 C 83.941406 134.070312 83.425781 131.535156 83.421875 123.398438 C 83.414062 99.644531 95.019531 87.28125 115.582031 82.839844 C 118.535156 82.203125 118.664062 82.359375 115.757812 82.3125 C 83.425781 81.792969 54.089844 100.796875 45.8125 111.210938 C 43.242188 114.441406 38.058594 119.082031 37.792969 118.386719 C 37.699219 118.136719 35.648438 119.902344 32.933594 122.570312 C 27.929688 127.492188 27.289062 127.96875 25.667969 127.96875 C 18.539062 127.96875 31.976562 106.433594 46.6875 94.152344 C 82.3125 64.414062 134.257812 68.484375 177.71875 87.0625 C 187.765625 91.355469 188.8125 92.351562 187.109375 90.886719 C 174.804688 80.3125 143.835938 65.882812 113.648438 62.207031 C 49.613281 54.410156 13.964844 118.765625 15.957031 126.695312 C 16.203125 127.675781 51.027344 155.09375 104.859375 158.675781 C 110.480469 159.050781 131.089844 158.347656 131.398438 158.039062 Z M 126.125 152.101562 C 132.699219 150.398438 130.785156 150.78125 132.964844 147.324219 C 134.230469 145.324219 134.273438 145.25 132.1875 146.730469 C 129.746094 148.46875 127.664062 149.222656 126.761719 150.011719 C 126.28125 150.4375 115.601562 154.195312 105.035156 149.429688 C 87.109375 141.34375 105.828125 157.359375 126.125 152.101562 Z M 121.613281 147.65625 C 123.984375 147.042969 125.007812 144.660156 124.9375 144.589844 C 124.6875 144.339844 122.683594 145.8125 117.363281 147.167969 C 107.589844 149.660156 121.613281 147.726562 121.613281 147.65625 Z M 94.480469 126.035156 C 95.21875 133.167969 96.691406 139.480469 102.699219 143.832031 C 104.261719 144.96875 104.433594 144.835938 109.429688 144.789062 C 102.421875 141.675781 97.902344 137.964844 94.480469 126.035156 Z M 96.042969 142.292969 C 95.425781 141.207031 94.671875 140.621094 93.890625 140.621094 C 92.800781 140.621094 93.136719 141.148438 94.777344 142.015625 C 96.339844 142.839844 96.355469 142.84375 96.042969 142.292969 Z M 98.320312 124.804688 C 97.625 122.816406 98.316406 131.140625 104.089844 137.039062 C 108.429688 141.472656 112.414062 141.984375 117.515625 141.972656 C 108.964844 140.117188 102.195312 135.910156 98.320312 124.804688 Z M 142.425781 138.058594 C 146.210938 131.207031 146.585938 124.296875 142.632812 134.882812 C 141.578125 137.710938 140.652344 140.179688 140.578125 140.371094 C 140.160156 141.472656 141.402344 139.914062 142.425781 138.058594 Z M 90.46875 135.152344 C 89.882812 132.28125 89.546875 130.148438 89.792969 133.066406 C 90.15625 137.378906 91.464844 140.035156 90.46875 135.152344 Z M 136.648438 122.699219 C 137.71875 118.828125 137.519531 118.265625 136.214844 121.464844 C 134.132812 126.582031 131.351562 129.929688 126.28125 133.425781 C 117.898438 139.203125 114.4375 137.824219 108.949219 132.433594 C 105.707031 129.25 105.386719 129.6875 108.527344 133.011719 C 112.992188 137.75 119.121094 138.757812 124.074219 137.085938 C 126.378906 137.085938 134.027344 132.144531 136.648438 122.699219 Z M 121.570312 130.019531 C 113.980469 130.449219 112.214844 119.925781 118.386719 116.808594 C 120.652344 115.664062 125.394531 116.328125 126.53125 117.125 C 127.042969 117.480469 127.582031 117.777344 127.726562 117.777344 C 128.160156 117.777344 127.609375 113.414062 126.964844 111.765625 C 125.339844 107.582031 121.730469 104.769531 117.996094 104.769531 C 116.773438 104.769531 116.5 104.957031 115.070312 106.777344 C 107.511719 116.410156 109.878906 128.792969 112.605469 130.582031 C 113.46875 131.148438 116.640625 132.121094 117.761719 132.164062 C 120.265625 132.261719 127.03125 129.710938 121.570312 130.019531 Z M 221.378906 115.636719 C 221.378906 115.332031 210.054688 107.894531 209.871094 108.078125 C 209.550781 108.394531 211.882812 111.792969 213.746094 111.796875 C 214.621094 111.800781 215.679688 114.261719 216.132812 114.261719 C 216.726562 114.261719 217.574219 115.976562 217.34375 116.703125 C 216.964844 117.890625 215.898438 118.25 214.628906 117.617188 C 212.519531 116.566406 215.300781 116.222656 203.285156 130.605469 C 212.503906 123.789062 221.378906 115.933594 221.378906 115.636719 Z M 150.757812 122.089844 C 152.058594 111.757812 148.714844 100.582031 148.644531 103.511719 C 148.566406 107.058594 149.828125 104.964844 149.84375 118.910156 C 149.851562 127.425781 150.015625 127.992188 150.757812 122.089844 Z M 131.554688 122.90625 C 138.617188 110.132812 131.53125 98.992188 122.804688 101.375 C 121.429688 101.75 121.273438 101.386719 123.683594 102.703125 C 130.1875 106.253906 133.003906 114.90625 130.339844 122.171875 C 128.8125 126.34375 129.214844 126.003906 129.773438 125.542969 C 130.101562 125.273438 130.902344 124.085938 131.554688 122.90625 Z M 118.867188 124.367188 C 118.65625 123.246094 118.042969 122.171875 118.042969 122.925781 C 118.042969 123.410156 118.777344 125.507812 118.945312 125.507812 C 119.113281 125.507812 118.796875 124.367188 118.867188 124.367188 Z M 122.960938 122.519531 C 122.960938 120.890625 122.257812 120.878906 122.257812 122.519531 C 122.257812 124.152344 122.960938 124.164062 122.960938 122.519531 Z M 45.988281 105.300781 C 81.988281 73 128.332031 70.90625 173.402344 89.523438 C 192.746094 97.515625 203.632812 105.925781 200.640625 102.839844 C 199.410156 101.570312 147.394531 69.261719 93.789062 77.394531 C 70.257812 80.960938 50.851562 91.878906 36.648438 109.542969 C 34.324219 112.429688 30.582031 118.015625 29.480469 120.234375 C 27.910156 123.410156 45.046875 105.300781 45.988281 105.300781 Z M 107.347656 114.085938 C 108.027344 111.632812 109.484375 108.855469 110.378906 107.054688 C 106.84375 110.484375 105.738281 111.246094 105.738281 116.277344 C 105.738281 127.015625 107.347656 112.042969 107.347656 114.085938 Z M 102.785156 109.792969 C 105.324219 102.035156 107.878906 99.617188 105.757812 101.960938 C 101.730469 106.402344 98.765625 122.058594 102.785156 109.792969 Z M 90.945312 106.007812 C 91.324219 104.464844 91.585938 103.152344 91.523438 103.089844 C 91.453125 103.023438 88.085938 109.6875 89.261719 110.425781 C 89.789062 110.757812 89.742188 110.878906 90.945312 106.007812 Z M 113.832031 101.515625 C 117.191406 100.632812 123.101562 95.375 129.78125 98.378906 C 134.847656 100.660156 128.113281 96.042969 126.738281 95.46875 C 117.996094 91.816406 107.0625 104.527344 110.933594 102.527344 C 111.574219 102.195312 113.832031 101.445312 113.832031 101.515625 Z M 135.445312 89.085938 C 139.59375 91.890625 142.230469 96.246094 143.875 98.929688 C 144.269531 94.980469 144.410156 94.886719 143.378906 93.75 C 143.378906 92.179688 129.800781 85.265625 135.445312 89.085938 Z M 137.128906 97.3125 C 135.898438 95.125 131.515625 91.082031 129.199219 90 C 123.230469 87.210938 115.058594 88.472656 109.78125 93 C 107.089844 95.304688 113.082031 90.359375 120.34375 90.359375 C 124.4375 90.359375 131.507812 92.214844 135.605469 96.378906 C 139.207031 100.042969 136.992188 97.453125 137.128906 97.3125 Z M 194.300781 80.226562 C 192.765625 78.984375 193.15625 78.664062 205.472656 66.371094 C 217.285156 54.585938 217.957031 54.039062 219.199219 55.28125 C 220.429688 56.511719 219.863281 57.226562 208.988281 68.152344 C 194.730469 82.480469 195.648438 81.316406 194.300781 80.226562 Z M 16.597656 75.90625 C 1.457031 63.65625 0.382812 61.582031 1.296875 59.578125 C 1.824219 58.421875 3.605469 58.386719 4.199219 59.515625 C 7.183594 65.1875 25.28125 76.386719 23.617188 79.042969 C 22.042969 81.558594 17.238281 75.90625 16.597656 75.90625 Z M 47.621094 62.503906 C 47.140625 62.070312 44.167969 58.863281 41.007812 55.375 C 24.328125 36.960938 21.167969 32.722656 22.859375 31.027344 C 23.566406 30.320312 24.824219 30.550781 25.496094 31.507812 C 32.988281 42.164062 50.492188 59.792969 50.597656 60.914062 C 50.882812 63.984375 47.621094 63.261719 47.621094 62.503906 Z M 171.621094 61.375 C 171.085938 60.558594 171.105469 60.394531 171.984375 58.476562 C 174.628906 52.699219 192.132812 26.019531 192.671875 25.421875 C 193.898438 24.058594 195.71875 24.570312 195.71875 26.273438 C 195.71875 27.683594 179.007812 52.488281 175.75 58.949219 C 172.890625 64.617188 171.839844 61.375 171.621094 61.375 Z M 138.226562 49.320312 C 137.269531 48.664062 137.300781 48.105469 140.171875 36.121094 C 146.238281 10.792969 145.054688 10.925781 147.074219 10.925781 C 148.339844 10.925781 149.089844 12.332031 148.800781 14.164062 C 148.019531 19.101562 141.039062 48.457031 140.488281 49.121094 C 139.757812 50 137.945312 49.320312 138.226562 49.320312 Z M 72.140625 48.238281 C 71.480469 47.464844 56.414062 15.402344 58.710938 13.101562 C 59.261719 12.554688 60.566406 12.5625 61.023438 13.121094 C 61.222656 13.363281 62.25 15.933594 63.304688 18.832031 C 70.417969 38.386719 76.21875 46.421875 74.476562 48.164062 C 73.085938 49.554688 72.132812 48.304688 72.140625 48.238281 Z M 106.644531 40.359375 C 106.136719 39.585938 100.753906 13.417969 99.558594 5.90625 C 98.875 1.621094 99.105469 0.378906 100.582031 0.378906 C 102.914062 0.378906 102.273438 2.421875 107 25.6875 C 108.429688 32.742188 109.605469 38.917969 109.605469 39.410156 C 109.605469 41.1875 107.605469 41.828125 106.644531 40.359375 Z M 106.644531 40.359375 " fill-opacity="1" fill-rule="nonzero"/></g><g fill="#000000" fill-opacity="1"><g transform="translate(42.444387, 251.538287)"><g><path d="M 33.421875 -25.90625 C 33.421875 -25.351562 33.175781 -24.773438 32.6875 -24.171875 C 32.207031 -23.578125 31.625 -23.003906 30.9375 -22.453125 C 30.550781 -22.160156 30.171875 -21.769531 29.796875 -21.28125 C 29.429688 -20.800781 29.125 -20.359375 28.875 -19.953125 C 28.632812 -19.546875 28.515625 -19.34375 28.515625 -19.34375 L 26.96875 -17.265625 L 23.421875 -13.71875 L 20.328125 -9.546875 L 19.5 -7.5625 L 16.640625 -4.5625 L 15.5625 -3.296875 C 15.113281 -2.816406 14.644531 -2.347656 14.15625 -1.890625 C 13.675781 -1.441406 13.191406 -1.21875 12.703125 -1.21875 C 11.929688 -1.21875 11.253906 -1.394531 10.671875 -1.75 C 10.085938 -2.101562 9.640625 -2.5 9.328125 -2.9375 C 9.023438 -3.375 8.859375 -3.671875 8.828125 -3.828125 L 8.4375 -6.0625 L 7.46875 -8.96875 L 7.21875 -11.15625 L 6.546875 -14.984375 C 6.546875 -14.984375 6.492188 -15.175781 6.390625 -15.5625 C 6.296875 -15.957031 6.191406 -16.421875 6.078125 -16.953125 C 5.972656 -17.484375 5.867188 -17.984375 5.765625 -18.453125 C 5.671875 -18.921875 5.625 -19.21875 5.625 -19.34375 C 5.625 -19.539062 5.519531 -19.828125 5.3125 -20.203125 C 5.101562 -20.578125 4.890625 -20.914062 4.671875 -21.21875 C 4.460938 -21.519531 4.359375 -21.671875 4.359375 -21.671875 C 4.171875 -21.960938 4.078125 -22.398438 4.078125 -22.984375 C 4.078125 -23.472656 4.15625 -23.957031 4.3125 -24.4375 C 4.707031 -25.1875 5.054688 -25.753906 5.359375 -26.140625 C 5.660156 -26.523438 6.140625 -26.71875 6.796875 -26.71875 C 7.335938 -26.71875 7.8125 -26.613281 8.21875 -26.40625 C 8.625 -26.195312 8.890625 -25.847656 9.015625 -25.359375 L 10.09375 -22.0625 L 11.5 -18.4375 L 11.59375 -17.03125 L 12.703125 -11.203125 C 12.867188 -10.460938 13.03125 -9.945312 13.1875 -9.65625 C 13.351562 -9.363281 13.550781 -9.21875 13.78125 -9.21875 C 14.0625 -9.21875 14.351562 -9.394531 14.65625 -9.75 C 14.96875 -10.101562 15.269531 -10.488281 15.5625 -10.90625 L 16.96875 -12.90625 L 17.9375 -13.78125 L 19.78125 -16.296875 C 20.4375 -17.234375 21.066406 -18.007812 21.671875 -18.625 C 22.285156 -19.238281 22.851562 -20 23.375 -20.90625 C 25.09375 -23.84375 26.515625 -25.929688 27.640625 -27.171875 C 28.773438 -28.421875 29.710938 -29.046875 30.453125 -29.046875 C 31.296875 -29.046875 32 -28.769531 32.5625 -28.21875 C 33.132812 -27.675781 33.421875 -26.90625 33.421875 -25.90625 Z M 33.421875 -25.90625 "/></g></g></g><g fill="#000000" fill-opacity="1"><g transform="translate(75.758806, 251.538287)"><g><path d="M 15.609375 -27.015625 C 15.609375 -26.492188 15.457031 -25.882812 15.15625 -25.1875 C 14.851562 -24.5 14.617188 -24.007812 14.453125 -23.71875 L 14.203125 -19.734375 L 13.828125 -18.28125 L 13.53125 -15.5625 L 13.28125 -13.828125 C 13.28125 -13.828125 13.222656 -13.523438 13.109375 -12.921875 C 13.003906 -12.328125 12.867188 -11.59375 12.703125 -10.71875 C 12.546875 -9.84375 12.410156 -9.007812 12.296875 -8.21875 C 12.179688 -7.425781 12.125 -6.835938 12.125 -6.453125 C 12.125 -5.484375 12.082031 -4.707031 12 -4.125 C 11.914062 -3.539062 11.828125 -3.101562 11.734375 -2.8125 C 11.578125 -2.289062 11.445312 -1.925781 11.34375 -1.71875 C 11.25 -1.507812 11.203125 -1.40625 11.203125 -1.40625 L 11.109375 -0.140625 C 11.078125 0.148438 10.878906 0.421875 10.515625 0.671875 C 10.160156 0.929688 9.757812 1.148438 9.3125 1.328125 C 8.863281 1.503906 8.472656 1.648438 8.140625 1.765625 C 7.816406 1.878906 7.65625 1.9375 7.65625 1.9375 L 6.890625 0.390625 L 6.203125 -0.34375 L 6.453125 -3.6875 L 7.125 -7.5625 L 7.125 -9.359375 L 7.515625 -10.28125 L 8.296875 -13.1875 L 8.390625 -14.75 L 9.125 -18.09375 L 9.40625 -23.8125 C 9.40625 -24.8125 9.648438 -25.71875 10.140625 -26.53125 C 10.523438 -27.175781 10.9375 -27.820312 11.375 -28.46875 C 11.8125 -29.113281 12.429688 -29.4375 13.234375 -29.4375 C 13.878906 -29.4375 14.4375 -29.21875 14.90625 -28.78125 C 15.375 -28.34375 15.609375 -27.753906 15.609375 -27.015625 Z M 15.609375 -27.015625 "/></g></g></g><g fill="#000000" fill-opacity="1"><g transform="translate(97.095598, 251.538287)"><g><path d="M 33.421875 -25.90625 C 33.421875 -25.351562 33.175781 -24.773438 32.6875 -24.171875 C 32.207031 -23.578125 31.625 -23.003906 30.9375 -22.453125 C 30.550781 -22.160156 30.171875 -21.769531 29.796875 -21.28125 C 29.429688 -20.800781 29.125 -20.359375 28.875 -19.953125 C 28.632812 -19.546875 28.515625 -19.34375 28.515625 -19.34375 L 26.96875 -17.265625 L 23.421875 -13.71875 L 20.328125 -9.546875 L 19.5 -7.5625 L 16.640625 -4.5625 L 15.5625 -3.296875 C 15.113281 -2.816406 14.644531 -2.347656 14.15625 -1.890625 C 13.675781 -1.441406 13.191406 -1.21875 12.703125 -1.21875 C 11.929688 -1.21875 11.253906 -1.394531 10.671875 -1.75 C 10.085938 -2.101562 9.640625 -2.5 9.328125 -2.9375 C 9.023438 -3.375 8.859375 -3.671875 8.828125 -3.828125 L 8.4375 -6.0625 L 7.46875 -8.96875 L 7.21875 -11.15625 L 6.546875 -14.984375 C 6.546875 -14.984375 6.492188 -15.175781 6.390625 -15.5625 C 6.296875 -15.957031 6.191406 -16.421875 6.078125 -16.953125 C 5.972656 -17.484375 5.867188 -17.984375 5.765625 -18.453125 C 5.671875 -18.921875 5.625 -19.21875 5.625 -19.34375 C 5.625 -19.539062 5.519531 -19.828125 5.3125 -20.203125 C 5.101562 -20.578125 4.890625 -20.914062 4.671875 -21.21875 C 4.460938 -21.519531 4.359375 -21.671875 4.359375 -21.671875 C 4.171875 -21.960938 4.078125 -22.398438 4.078125 -22.984375 C 4.078125 -23.472656 4.15625 -23.957031 4.3125 -24.4375 C 4.707031 -25.1875 5.054688 -25.753906 5.359375 -26.140625 C 5.660156 -26.523438 6.140625 -26.71875 6.796875 -26.71875 C 7.335938 -26.71875 7.8125 -26.613281 8.21875 -26.40625 C 8.625 -26.195312 8.890625 -25.847656 9.015625 -25.359375 L 10.09375 -22.0625 L 11.5 -18.4375 L 11.59375 -17.03125 L 12.703125 -11.203125 C 12.867188 -10.460938 13.03125 -9.945312 13.1875 -9.65625 C 13.351562 -9.363281 13.550781 -9.21875 13.78125 -9.21875 C 14.0625 -9.21875 14.351562 -9.394531 14.65625 -9.75 C 14.96875 -10.101562 15.269531 -10.488281 15.5625 -10.90625 L 16.96875 -12.90625 L 17.9375 -13.78125 L 19.78125 -16.296875 C 20.4375 -17.234375 21.066406 -18.007812 21.671875 -18.625 C 22.285156 -19.238281 22.851562 -20 23.375 -20.90625 C 25.09375 -23.84375 26.515625 -25.929688 27.640625 -27.171875 C 28.773438 -28.421875 29.710938 -29.046875 30.453125 -29.046875 C 31.296875 -29.046875 32 -28.769531 32.5625 -28.21875 C 33.132812 -27.675781 33.421875 -26.90625 33.421875 -25.90625 Z M 33.421875 -25.90625 "/></g></g></g><g fill="#000000" fill-opacity="1"><g transform="translate(130.410017, 251.538287)"><g><path d="M 15.609375 -27.015625 C 15.609375 -26.492188 15.457031 -25.882812 15.15625 -25.1875 C 14.851562 -24.5 14.617188 -24.007812 14.453125 -23.71875 L 14.203125 -19.734375 L 13.828125 -18.28125 L 13.53125 -15.5625 L 13.28125 -13.828125 C 13.28125 -13.828125 13.222656 -13.523438 13.109375 -12.921875 C 13.003906 -12.328125 12.867188 -11.59375 12.703125 -10.71875 C 12.546875 -9.84375 12.410156 -9.007812 12.296875 -8.21875 C 12.179688 -7.425781 12.125 -6.835938 12.125 -6.453125 C 12.125 -5.484375 12.082031 -4.707031 12 -4.125 C 11.914062 -3.539062 11.828125 -3.101562 11.734375 -2.8125 C 11.578125 -2.289062 11.445312 -1.925781 11.34375 -1.71875 C 11.25 -1.507812 11.203125 -1.40625 11.203125 -1.40625 L 11.109375 -0.140625 C 11.078125 0.148438 10.878906 0.421875 10.515625 0.671875 C 10.160156 0.929688 9.757812 1.148438 9.3125 1.328125 C 8.863281 1.503906 8.472656 1.648438 8.140625 1.765625 C 7.816406 1.878906 7.65625 1.9375 7.65625 1.9375 L 6.890625 0.390625 L 6.203125 -0.34375 L 6.453125 -3.6875 L 7.125 -7.5625 L 7.125 -9.359375 L 7.515625 -10.28125 L 8.296875 -13.1875 L 8.390625 -14.75 L 9.125 -18.09375 L 9.40625 -23.8125 C 9.40625 -24.8125 9.648438 -25.71875 10.140625 -26.53125 C 10.523438 -27.175781 10.9375 -27.820312 11.375 -28.46875 C 11.8125 -29.113281 12.429688 -29.4375 13.234375 -29.4375 C 13.878906 -29.4375 14.4375 -29.21875 14.90625 -28.78125 C 15.375 -28.34375 15.609375 -27.753906 15.609375 -27.015625 Z M 15.609375 -27.015625 "/></g></g></g><g fill="#000000" fill-opacity="1"><g transform="translate(151.746808, 251.538287)"><g><path d="M 29.25 -19.453125 C 29.25 -17.992188 28.960938 -16.488281 28.390625 -14.9375 C 27.828125 -13.382812 27.019531 -11.894531 25.96875 -10.46875 C 24.914062 -9.050781 23.675781 -7.789062 22.25 -6.6875 C 20.832031 -5.59375 19.269531 -4.769531 17.5625 -4.21875 L 14.359375 -3.15625 C 14.160156 -3.019531 13.6875 -2.71875 12.9375 -2.25 C 12.195312 -1.78125 11.363281 -1.34375 10.4375 -0.9375 C 9.519531 -0.539062 8.691406 -0.34375 7.953125 -0.34375 C 6.753906 -0.34375 5.757812 -0.726562 4.96875 -1.5 C 4.175781 -2.28125 3.78125 -3.070312 3.78125 -3.875 C 3.78125 -4.226562 3.75 -4.566406 3.6875 -4.890625 C 3.625 -5.222656 3.59375 -5.566406 3.59375 -5.921875 C 3.59375 -6.046875 3.597656 -6.171875 3.609375 -6.296875 C 3.628906 -6.429688 3.65625 -6.5625 3.6875 -6.6875 L 4.46875 -10.28125 L 5 -11.15625 L 6.015625 -17.75 L 6.40625 -18.859375 L 6.40625 -21.53125 L 6.734375 -22.359375 L 7.03125 -25.703125 L 7.765625 -28.421875 L 8 -29.046875 L 8.25 -30.890625 L 8.96875 -31.671875 L 9.609375 -32.828125 L 11.78125 -33.125 L 12.5625 -32.984375 L 13.390625 -33.171875 C 13.390625 -33.171875 13.6875 -33.101562 14.28125 -32.96875 C 14.882812 -32.84375 15.628906 -32.660156 16.515625 -32.421875 C 17.398438 -32.179688 18.285156 -31.914062 19.171875 -31.625 C 20.066406 -31.332031 20.820312 -31.039062 21.4375 -30.75 C 22.863281 -29.9375 24.164062 -28.882812 25.34375 -27.59375 C 26.519531 -26.300781 27.460938 -24.941406 28.171875 -23.515625 C 28.890625 -22.097656 29.25 -20.742188 29.25 -19.453125 Z M 24 -18.1875 C 24 -20 23.503906 -21.613281 22.515625 -23.03125 C 21.535156 -24.457031 20.222656 -25.585938 18.578125 -26.421875 C 16.929688 -27.265625 15.085938 -27.6875 13.046875 -27.6875 C 12.921875 -27.6875 12.789062 -27.566406 12.65625 -27.328125 C 12.53125 -27.085938 12.414062 -26.867188 12.3125 -26.671875 L 12.265625 -25.5625 L 11.59375 -22.453125 L 11.453125 -20.703125 L 10.765625 -18 L 10.90625 -16.921875 L 9.84375 -9.9375 C 9.75 -9.351562 9.601562 -8.769531 9.40625 -8.1875 C 9.21875 -7.613281 9.125 -7.148438 9.125 -6.796875 C 9.125 -6.367188 9.300781 -6.140625 9.65625 -6.109375 C 9.8125 -6.109375 10.128906 -6.238281 10.609375 -6.5 C 11.097656 -6.757812 11.566406 -7.023438 12.015625 -7.296875 C 12.472656 -7.578125 12.703125 -7.71875 12.703125 -7.71875 C 12.703125 -7.71875 12.992188 -7.835938 13.578125 -8.078125 C 14.160156 -8.316406 14.847656 -8.617188 15.640625 -8.984375 C 16.429688 -9.359375 17.117188 -9.726562 17.703125 -10.09375 C 18.347656 -10.476562 19.019531 -10.925781 19.71875 -11.4375 C 20.414062 -11.957031 20.890625 -12.332031 21.140625 -12.5625 L 21.875 -14.546875 L 22.546875 -15.28125 L 22.984375 -16.59375 C 22.984375 -16.59375 23.070312 -16.6875 23.25 -16.875 C 23.425781 -17.070312 23.59375 -17.296875 23.75 -17.546875 C 23.914062 -17.804688 24 -18.019531 24 -18.1875 Z M 24 -18.1875 "/></g></g></g></g></g></svg>